<svg width="26" height="26" viewBox="0 0 26 26" fill="none" xmlns="http://www.w3.org/2000/svg">
<rect width="26" height="26" rx="5" fill="#040037"/>
<g clip-path="url(#clip0_219_34)">
<path d="M12.0917 16.1951V15.9483C12.0917 11.9611 12.0917 7.97382 12.0917 3.98574C12.0917 3.43328 12.4399 3.03149 12.9395 3.00085C13.4486 2.96935 13.8699 3.3422 13.9116 3.86231C13.9184 3.94658 13.915 4.03256 13.915 4.11683C13.915 8.0615 13.915 12.007 13.915 15.9517C13.915 16.0334 13.915 16.116 13.915 16.2454C14.0104 16.156 14.0716 16.1015 14.1295 16.0445C15.3621 14.8127 16.5938 13.5801 17.8263 12.3475C18.2111 11.9619 18.7678 11.9449 19.1372 12.3058C19.5075 12.6676 19.5066 13.2328 19.1244 13.6159C17.3122 15.4307 15.4991 17.2439 13.6835 19.0545C13.2698 19.4665 12.7369 19.4665 12.3258 19.057C10.5306 17.266 8.73627 15.4733 6.94447 13.6789C6.54866 13.2822 6.53419 12.7161 6.90021 12.3509C7.26793 11.984 7.82973 11.996 8.2281 12.3926C9.44277 13.6023 10.654 14.8153 11.8653 16.0283C11.9249 16.0879 11.9734 16.1594 12.027 16.2258C12.0492 16.2156 12.0705 16.2045 12.0926 16.1943L12.0917 16.1951Z" fill="white"/>
<path d="M4.82331 21.1724H21.1844C21.1844 21.0855 21.1844 21.0106 21.1844 20.9349C21.1844 20.1066 21.1801 19.2775 21.1878 18.4492C21.1921 18.0049 21.5206 17.6363 21.9403 17.5767C22.4016 17.5112 22.8213 17.7623 22.9524 18.1956C22.9881 18.3156 22.9983 18.4467 22.9983 18.5727C23.0017 19.7057 23.0017 20.8387 23 21.9725C22.9983 22.6416 22.6442 22.9991 21.9769 22.9991C15.9963 23.0008 10.0157 23 4.03509 22.9991C3.36178 22.9991 3.00428 22.634 3.00343 21.9555C3.00343 20.8012 2.99917 19.6469 3.00513 18.4918C3.00853 17.8219 3.58906 17.3818 4.19597 17.5767C4.57901 17.7001 4.82331 18.0389 4.82416 18.4654C4.82671 19.2869 4.82501 20.1083 4.82501 20.9298C4.82501 21.0064 4.82501 21.0821 4.82501 21.1715L4.82331 21.1724Z" fill="white"/>
</g>
<defs>
<clipPath id="clip0_219_34">
<rect width="20" height="20" fill="white" transform="translate(3 3)"/>
</clipPath>
</defs>
</svg>
