<svg width="20" height="20" viewBox="0 0 20 20" fill="none" xmlns="http://www.w3.org/2000/svg">
<g clip-path="url(#clip0_12_21)">
<path d="M9.09173 13.1952V12.9483C9.09173 8.96108 9.09173 4.97385 9.09173 0.985769C9.09173 0.433311 9.43988 0.0315238 9.93954 0.000878948C10.4486 -0.0306171 10.8699 0.342228 10.9116 0.862339C10.9184 0.946612 10.915 1.03259 10.915 1.11686C10.915 5.06153 10.915 9.00705 10.915 12.9517C10.915 13.0334 10.915 13.116 10.915 13.2454C11.0104 13.156 11.0716 13.1015 11.1295 13.0445C12.3621 11.8128 13.5938 10.5802 14.8263 9.34755C15.2111 8.96194 15.7678 8.94491 16.1372 9.30584C16.5075 9.66762 16.5066 10.2328 16.1244 10.6159C14.3122 12.4308 12.4991 14.2439 10.6835 16.0545C10.2698 16.4665 9.73695 16.4665 9.32581 16.0571C7.53061 14.266 5.73627 12.4733 3.94447 10.6789C3.54866 10.2822 3.53419 9.71614 3.90021 9.35095C4.26793 8.98407 4.82973 8.99598 5.2281 9.39266C6.44277 10.6023 7.65404 11.8153 8.86531 13.0283C8.9249 13.0879 8.97341 13.1594 9.02704 13.2258C9.04917 13.2156 9.07045 13.2045 9.09258 13.1943L9.09173 13.1952Z" fill="#8D8C8C"/>
<path d="M1.82331 18.1724H18.1844C18.1844 18.0856 18.1844 18.0107 18.1844 17.9349C18.1844 17.1066 18.1801 16.2775 18.1878 15.4493C18.1921 15.0049 18.5206 14.6363 18.9403 14.5767C19.4016 14.5112 19.8213 14.7623 19.9524 15.1956C19.9881 15.3156 19.9983 15.4467 19.9983 15.5727C20.0017 16.7057 20.0017 17.8387 20 18.9726C19.9983 19.6416 19.6442 19.9992 18.9769 19.9992C12.9963 20.0009 7.01568 20 1.03509 19.9992C0.361785 19.9992 0.00427701 19.634 0.0034258 18.9555C0.0034258 17.8013 -0.000830239 16.647 0.00512822 15.4918C0.00853306 14.8219 0.589057 14.3818 1.19597 14.5767C1.57901 14.7002 1.82331 15.039 1.82416 15.4654C1.82671 16.2869 1.82501 17.1083 1.82501 17.9298C1.82501 18.0064 1.82501 18.0822 1.82501 18.1715L1.82331 18.1724Z" fill="#8D8C8C"/>
</g>
<defs>
<clipPath id="clip0_12_21">
<rect width="20" height="20" fill="white"/>
</clipPath>
</defs>
</svg>
