<svg width="43" height="43" viewBox="0 0 43 43" fill="none" xmlns="http://www.w3.org/2000/svg">
<circle cx="21.4968" cy="21.6315" r="20.8981" fill="white"/>
<path d="M16.5416 32.3869L28.8239 17.8923L28.8239 27.6486C28.8239 28.1123 28.98 28.5571 29.2579 28.885C29.5357 29.2129 29.9126 29.3971 30.3055 29.3971C30.6985 29.3971 31.0753 29.2129 31.3532 28.885C31.631 28.5571 31.7871 28.1123 31.7871 27.6486L31.7871 13.7484C31.7871 13.2847 31.631 12.84 31.3532 12.5121C31.0753 12.1842 30.6985 12 30.3055 12L18.4529 12C18.0599 12 17.6831 12.1842 17.4052 12.5121C17.1274 12.84 16.9713 13.2847 16.9713 13.7484L16.9713 13.661C16.9713 14.1247 17.1274 14.5695 17.4052 14.8974C17.6831 15.2253 18.0599 15.4095 18.4529 15.4095L26.6756 15.4095L14.4378 29.8517C14.2989 30.0142 14.1887 30.2076 14.1135 30.4206C14.0382 30.6337 13.9995 30.8622 13.9995 31.0931C13.9995 31.3239 14.0382 31.5524 14.1135 31.7655C14.1887 31.9785 14.2989 32.1719 14.4378 32.3345C14.5725 32.5018 14.7341 32.636 14.913 32.7293C15.092 32.8226 15.2848 32.8732 15.4804 32.878C15.676 32.8829 15.8705 32.842 16.0527 32.7577C16.2348 32.6734 16.401 32.5474 16.5416 32.3869Z" fill="#040037"/>
</svg>
